<svg width="32px" height="32px" viewBox="0 0 24 24" fill="none" xmlns="http://www.w3.org/2000/svg">
<path fill-rule="evenodd" clip-rule="evenodd" d="M12 3.53846C9.83082 3.53846 6.86615 3.73753 5.01495 3.88095C4.40616 3.92811 3.92811 4.40616 3.88095 5.01495C3.73753 6.86615 3.53846 9.83082 3.53846 12C3.53846 14.1692 3.73753 17.1338 3.88095 18.985C3.92811 19.5938 4.40616 20.0719 5.01495 20.1191C6.86615 20.2625 9.83082 20.4615 12 20.4615C14.1692 20.4615 17.1338 20.2625 18.985 20.1191C19.5938 20.0719 20.0719 19.5938 20.1191 18.985C20.2625 17.1338 20.4615 14.1692 20.4615 12C20.4615 9.83082 20.2625 6.86615 20.1191 5.01495C20.0719 4.40616 19.5938 3.92811 18.985 3.88095C17.1338 3.73753 14.1692 3.53846 12 3.53846ZM4.89612 2.34708C6.74819 2.2036 9.76547 2 12 2C14.2345 2 17.2518 2.2036 19.1039 2.34708C20.4686 2.45281 21.5472 3.53141 21.6529 4.89612C21.7964 6.74819 22 9.76547 22 12C22 14.2345 21.7964 17.2518 21.6529 19.1039C21.5472 20.4686 20.4686 21.5472 19.1039 21.6529C17.2518 21.7964 14.2345 22 12 22C9.76547 22 6.74819 21.7964 4.89612 21.6529C3.53141 21.5472 2.45281 20.4686 2.34708 19.1039C2.2036 17.2518 2 14.2345 2 12C2 9.76547 2.2036 6.74819 2.34708 4.89612C2.45281 3.53141 3.53141 2.45281 4.89612 2.34708Z" fill="#030D45"/>
<path fill-rule="evenodd" clip-rule="evenodd" d="M15.6209 9.40479C15.9213 9.70519 15.9213 10.1922 15.6209 10.4926L11.5183 14.5952C11.2179 14.8956 10.7308 14.8956 10.4304 14.5952L8.37915 12.5439C8.07875 12.2435 8.07875 11.7565 8.37915 11.4561C8.67955 11.1557 9.1666 11.1557 9.46701 11.4561L10.9744 12.9634L14.533 9.40479C14.8334 9.10439 15.3204 9.10439 15.6209 9.40479Z" fill="#030D45"/>
</svg>
